<svg width="160" height="24" viewBox="0 0 160 24" fill="none" xmlns="http://www.w3.org/2000/svg">
    <path d="M17.5 24C26.165 24 34 18.165 34 12C34 5.83502 26.165 0 17.5 0C8.83502 0 1 5.83502 1 12C1 18.165 8.83502 24 17.5 24Z" fill="url(#gradient1)"/>
    <path d="M14.875 4L9.625 9.25H14.875V14.5L9.625 19.75H14.875V23L20.125 19.75H14.875V14.5L20.125 9.25H14.875V4Z" fill="white"/>
    <path fill-rule="evenodd" clip-rule="evenodd" d="M20.125 19.75C21.1592 19.75 22.1832 19.5463 23.1386 19.1506C24.0941 18.7548 24.9622 18.1747 25.6935 17.4435C26.4247 16.7122 27.0048 15.8441 27.4006 14.8886C27.7963 13.9332 28 12.9092 28 11.875C28 10.8408 27.7963 9.81682 27.4006 8.86143C27.0048 7.90595 26.4247 7.03781 25.6935 6.30653C24.9622 5.57527 24.0941 4.9952 23.1386 4.59945C22.1832 4.20369 21.1592 4 20.125 4L14.875 4V9.25H9.625V14.5H14.875V19.75H9.625V23H14.875V19.75H20.125ZM20.125 14.5V9.25H14.875V14.5H20.125Z" fill="#211F35"/>
    <defs>
        <radialGradient id="gradient1" cx="0" cy="0" r="1" gradientUnits="userSpaceOnUse" gradientTransform="translate(0 12) scale(34)">
            <stop stop-color="#50FAAB"/>
            <stop offset="1" stop-color="#00DB65"/>
        </radialGradient>
    </defs>
</svg>
