<svg width="111" height="35" viewBox="0 0 111 35" fill="none" xmlns="http://www.w3.org/2000/svg">
    <path d="M17.5 35C27.165 35 35 27.165 35 17.5C35 7.83502 27.165 0 17.5 0C7.83502 0 0 7.83502 0 17.5C0 27.165 7.83502 35 17.5 35Z" fill="#50FAAB"/>
    <path d="M14.875 7L9.625 12.25H14.875V17.5L9.625 22.75H14.875V28L20.125 22.75H14.875V17.5L20.125 12.25H14.875V7Z" fill="white"/>
    <path fill-rule="evenodd" clip-rule="evenodd" d="M20.125 22.75C21.1592 22.75 22.1832 22.5463 23.1386 22.1506C24.0941 21.7548 24.9622 21.1747 25.6935 20.4435C26.4247 19.7122 27.0048 18.8441 27.4006 17.8886C27.7963 16.9332 28 15.9092 28 14.875C28 13.8408 27.7963 12.8168 27.4006 11.8614C27.0048 10.9059 26.4247 10.0378 25.6935 9.30653C24.9622 8.57527 24.0941 7.9952 23.1386 7.59945C22.1832 7.20369 21.1592 7 20.125 7L14.875 7V12.25H9.625V17.5H14.875V22.75H9.625V28H14.875V22.75H20.125ZM20.125 17.5V12.25H14.875V17.5H20.125Z" fill="#211F35"/>
    <path fill-rule="evenodd" clip-rule="evenodd" d="M109.027 24.3816C108.155 25.0937 106.965 25.4551 105.455 25.4551C103.702 25.4551 102.32 24.9343 101.31 23.882C100.3 22.8297 99.8005 21.3628 99.8005 19.4708C99.8005 17.5894 100.3 16.1119 101.31 15.0596C102.32 14.0073 103.702 13.4864 105.455 13.4864C107.124 13.4864 108.474 14.0179 109.484 15.0915C110.494 16.165 111.004 17.5575 111.004 19.2582L110.898 20.4487H102.957C103.223 21.9687 104.052 22.734 105.455 22.734C106.008 22.734 106.433 22.649 106.72 22.4683C106.95 22.3323 107.172 22.1283 107.377 21.8618H110.728C110.406 22.8726 109.842 23.7154 109.027 24.3816ZM105.455 16.2076C104.18 16.2076 103.351 16.856 102.957 18.1634H107.847C107.73 17.6106 107.475 17.1429 107.06 16.7709C106.646 16.3989 106.104 16.2076 105.455 16.2076Z" fill="#211F35"/>
    <path d="M94.358 10H97.3584L97.4086 25.2425H94.358V10Z" fill="#211F35"/>
    <path fill-rule="evenodd" clip-rule="evenodd" d="M48.9926 20.4487V25.2425H45.7188V10H52.0326C53.5951 10 54.8813 10.489 55.8804 11.4669C56.869 12.4554 57.3686 13.7097 57.3686 15.2297C57.3686 16.7497 56.869 18.0039 55.8804 18.9818C54.8813 19.9597 53.5951 20.4487 52.0326 20.4487H48.9926ZM51.7137 12.9443H48.9926V17.515H51.7137C53.2125 17.515 54.1053 16.6434 54.1053 15.2297C54.1053 13.8159 53.2125 12.9443 51.7137 12.9443Z" fill="#211F35"/>
    <path d="M81.1768 25.2416V22.5205H75.7345L81.0705 15.994V13.7087H72.0355V16.4298H77.1482L71.8123 22.9563V25.2416H81.1768Z" fill="#211F35"/>
    <path d="M92.0664 25.2416V22.5205H86.6241L91.9601 15.994V13.7087H82.9251V16.4298H88.0378L82.7019 22.9563V25.2416H92.0664Z" fill="#211F35"/>
    <path d="M64.3281 22.1919C65.4509 22.1901 66.5024 21.3236 66.5024 20.3576V13.6572L69.553 13.6564L69.553 20.3546L69.5491 20.3576C69.5015 21.813 69.0138 23.0192 68.0861 23.9671C67.1082 24.9556 65.854 25.4552 64.334 25.4552H64.3223C62.8023 25.4552 61.5481 24.9556 60.5702 23.9671C59.6424 23.0192 59.1548 21.813 59.1072 20.3576L59.1033 20.3546L59.1033 13.6564L62.1539 13.6572V20.3576C62.1539 21.3236 63.2054 22.1901 64.3281 22.1919Z" fill="#211F35"/>
</svg>
